<?xml version="1.0" encoding="UTF-8" standalone="no"?>
<svg
   xmlns:dc="http://purl.org/dc/elements/1.1/"
   xmlns:cc="http://creativecommons.org/ns#"
   xmlns:rdf="http://www.w3.org/1999/02/22-rdf-syntax-ns#"
   xmlns:svg="http://www.w3.org/2000/svg"
   xmlns="http://www.w3.org/2000/svg"
   viewBox="0 0 2000 2000"
   height="100"
   width="100"
   xml:space="preserve"
   id="svg2"
   version="1.1"><metadata
     id="metadata8"><rdf:RDF><cc:Work
         rdf:about=""><dc:format>image/svg+xml</dc:format><dc:type
           rdf:resource="http://purl.org/dc/dcmitype/StillImage" /></cc:Work></rdf:RDF></metadata><defs
     id="defs6"><clipPath
       id="clipPath20"
       clipPathUnits="userSpaceOnUse"><path
         id="path18"
         d="M 0,1500 H 1500 V 0 H 0 Z" /></clipPath></defs><g
     transform="matrix(1.3333333,0,0,-1.3333333,0,2000)"
     id="g10"><path
       id="path12"
       style="fill:#244240;fill-opacity:1;fill-rule:nonzero;stroke:none"
       d="M 0,0 H 1500 V 1500 H 0 Z" /><g
       id="g14"><g
         clip-path="url(#clipPath20)"
         id="g16"><g
           transform="translate(393.5601,442.4303)"
           id="g22"><path
             id="path24"
             style="fill:#ffffff;fill-opacity:1;fill-rule:nonzero;stroke:none"
             d="m 0,0 v 74.074 c 0,2.755 0.766,5.151 2.296,7.194 1.53,2.039 3.391,3.466 5.586,4.285 2.192,0.815 4.538,0.994 7.04,0.535 2.499,-0.459 4.668,-1.76 6.504,-3.902 l 54.943,-63.362 54.943,63.362 c 1.837,2.142 4.004,3.443 6.505,3.902 2.499,0.459 4.845,0.28 7.04,-0.535 2.194,-0.819 4.056,-2.246 5.586,-4.285 1.532,-2.043 2.296,-4.439 2.296,-7.194 V 0 H 134.527 V 58.311 L 85.553,1.837 c -1.225,-1.431 -2.655,-2.499 -4.285,-3.214 -1.634,-0.713 -3.291,-1.071 -4.975,-1.071 -1.684,0 -3.316,0.358 -4.897,1.071 -1.583,0.715 -2.985,1.783 -4.208,3.214 L 18.213,58.311 V 0 Z" /></g><g
           transform="translate(577.2124,481.151)"
           id="g26"><path
             id="path28"
             style="fill:#ffffff;fill-opacity:1;fill-rule:nonzero;stroke:none"
             d="m 0,0 h 82.033 v 15.305 c 0,3.263 -1.148,6.045 -3.444,8.341 -2.296,2.295 -5.077,3.443 -8.341,3.443 H 11.785 C 8.518,27.089 5.739,25.941 3.443,23.646 1.148,21.35 0,18.568 0,15.305 Z m 11.785,45.607 h 58.463 c 4.183,0 8.111,-0.792 11.785,-2.372 3.672,-1.583 6.86,-3.75 9.565,-6.505 2.703,-2.754 4.845,-5.968 6.427,-9.641 1.581,-3.673 2.373,-7.603 2.373,-11.784 V -38.721 H 82.033 v 20.202 H 0 v -20.202 h -18.365 v 54.026 c 0,4.181 0.789,8.111 2.372,11.784 1.581,3.673 3.723,6.887 6.429,9.641 2.701,2.755 5.891,4.922 9.564,6.505 3.674,1.58 7.6,2.372 11.785,2.372" /></g><g
           transform="translate(803.8716,526.2995)"
           id="g30"><path
             id="path32"
             style="fill:#ffffff;fill-opacity:1;fill-rule:nonzero;stroke:none"
             d="m 0,0 v -73.615 c 0,-2.552 -0.665,-4.771 -1.989,-6.657 -1.328,-1.89 -2.985,-3.317 -4.975,-4.286 -1.99,-0.968 -4.158,-1.378 -6.504,-1.224 -2.348,0.153 -4.491,1.048 -6.428,2.678 l -74.839,60.453 v -61.218 h -18.213 v 73.615 c 0,2.549 0.663,4.794 1.99,6.733 1.324,1.938 2.984,3.368 4.974,4.286 1.989,0.919 4.131,1.3 6.428,1.148 2.295,-0.153 4.412,-1.048 6.351,-2.679 l 74.993,-60.299 V 0 Z" /></g><g
           transform="translate(912.0737,460.7956)"
           id="g34"><path
             id="path36"
             style="fill:#ffffff;fill-opacity:1;fill-rule:nonzero;stroke:none"
             d="m 0,0 c 3.264,0 6.045,1.148 8.342,3.443 2.295,2.296 3.443,5.076 3.443,8.342 v 23.569 c 0,3.264 -1.148,6.045 -3.443,8.34 C 6.045,45.99 3.264,47.139 0,47.139 H -75.91 V 0 Z M 30.15,11.785 C 30.15,7.6 29.358,3.673 27.777,0 26.195,-3.673 24.053,-6.863 21.35,-9.565 18.646,-12.27 15.457,-14.412 11.785,-15.993 8.111,-17.576 4.183,-18.365 0,-18.365 H -94.275 V 65.504 L 0,65.656 c 4.183,0 8.111,-0.791 11.785,-2.372 3.672,-1.583 6.861,-3.749 9.565,-6.504 2.703,-2.755 4.845,-5.968 6.427,-9.641 1.581,-3.674 2.373,-7.603 2.373,-11.785 z" /></g><g
           transform="translate(971.9136,493.0885)"
           id="g38"><path
             id="path40"
             style="fill:#ffffff;fill-opacity:1;fill-rule:nonzero;stroke:none"
             d="m 0,0 h 85.705 v 33.211 h 18.52 v -83.869 h -18.52 v 32.293 H 0 V -50.658 H -18.365 V 33.211 H 0 Z" /></g><path
           id="path42"
           style="fill:#ffffff;fill-opacity:1;fill-rule:nonzero;stroke:none"
           d="m 1106.44,442.43 h -18.365 v 83.869 h 18.365 z" /><g
           transform="translate(520.8936,777.5753)"
           id="g44"><path
             id="path46"
             style="fill:#dca900;fill-opacity:1;fill-rule:nonzero;stroke:none"
             d="M 0,0 H 458.213 L 422.23,-35.983 H 31.884 Z" /></g><g
           transform="translate(759.8511,980.1976)"
           id="g48"><path
             id="path50"
             style="fill:#dca900;fill-opacity:1;fill-rule:nonzero;stroke:none"
             d="m 0,0 c 0,-8.461 -6.859,-15.319 -15.319,-15.319 -8.461,0 -15.319,6.858 -15.319,15.319 0,8.461 6.858,15.319 15.319,15.319 C -6.859,15.319 0,8.461 0,0" /></g><g
           transform="translate(750.0002,1040.0179)"
           id="g52"><path
             id="path54"
             style="fill:#dca900;fill-opacity:1;fill-rule:nonzero;stroke:none"
             d="m 0,0 c 164.553,0 298.426,-133.873 298.426,-298.426 h 20 c 0,85.055 -33.122,165.018 -93.265,225.161 C 165.019,-13.122 85.055,20 0,20 c -85.055,0 -165.019,-33.122 -225.161,-93.265 -60.143,-60.143 -93.265,-140.106 -93.265,-225.161 h 20 C -298.426,-133.873 -164.553,0 0,0" /></g><g
           transform="translate(609.257,814.9246)"
           id="g56"><path
             id="path58"
             style="fill:#dca900;fill-opacity:1;fill-rule:nonzero;stroke:none"
             d="M 0,0 H -26.418 C -6.377,112.048 67.411,127.534 67.411,127.534 10.02,71.966 0,0 0,0 m 84.135,10.081 c 0.278,6.956 -1.573,12.939 -7.243,17.649 -3.572,2.968 -5.231,7.355 -5.079,12.038 0.399,12.278 0.946,24.551 1.571,36.82 0.512,10.031 1.219,20.053 1.843,30.078 0.208,3.345 0.441,3.363 4.866,3.463 2.862,0.065 3.373,-1.285 3.392,-3.764 0.112,-14.731 0.348,-29.461 0.533,-44.192 0.027,-2.139 0.003,-4.278 0.545,-6.42 0.236,9.392 0.458,18.785 0.709,28.177 0.207,7.704 0.521,15.405 0.634,23.11 0.042,2.827 1.615,3.142 3.823,3.048 2.214,-0.093 4.618,0.493 4.674,-3.102 0.167,-10.826 0.452,-21.652 0.77,-32.476 0.153,-5.227 0.481,-10.449 0.73,-15.673 0.236,0.002 0.472,0.005 0.707,0.008 0,13.361 -0.012,26.723 0.01,40.085 0.005,2.731 0.2,5.461 0.193,8.192 -0.005,2.082 0.849,2.941 2.982,2.987 5.017,0.108 5.143,0.095 5.407,-5.053 1.068,-20.842 2.114,-41.686 3.173,-62.528 0.337,-6.653 -1.804,-12.285 -6.963,-16.606 -4.868,-4.078 -5.646,-9.686 -5.516,-15.412 0.273,-11.984 0.823,-23.964 1.374,-35.94 0.046,-1.014 0.04,-2.16 0.102,-3.265 h 37.598 c 0.002,0.014 0.004,0.028 0.005,0.043 1.255,15.171 2.233,30.347 1.375,45.588 -0.197,3.486 -1.177,5.969 -4.566,7.708 -11.371,5.835 -16.18,15.998 -17.095,28.13 -1.228,16.293 2.303,31.617 11.005,45.539 1.828,2.926 4.27,5.607 6.884,7.877 5.969,5.184 13.009,5.177 19.234,0.326 5.633,-4.389 9.116,-10.36 11.868,-16.773 5.491,-12.8 7.7,-26.127 5.935,-40.01 -1.449,-11.408 -6.953,-20.178 -17.309,-25.487 -2.665,-1.366 -3.806,-3.315 -3.771,-6.013 0.178,-13.545 0.394,-27.09 0.733,-40.632 0.051,-2.084 0.282,-4.169 0.538,-6.296 h 29.291 c -0.607,20.228 -1.597,40.455 -1.698,60.685 -0.115,23.209 0.563,46.423 0.949,69.634 0.07,4.217 2.903,7.432 6.946,8.246 4.099,0.824 8.333,-1.072 9.632,-5.281 3.007,-9.748 6.273,-19.51 8.088,-29.511 4.34,-23.911 3.191,-47.987 0.434,-72.003 -0.546,-4.757 -2.737,-8.628 -6.957,-11.305 -0.929,-0.589 -1.697,-2.216 -1.694,-3.363 0.016,-5.701 0.235,-11.401 0.39,-17.102 H 332.5 C 332.5,76.203 245.628,161.24 138.465,161.24 31.303,161.24 -55.569,76.203 -55.569,-28.695 H 82.439 c 0.62,12.923 1.178,25.849 1.696,38.776" /></g><g
           transform="translate(695.8019,787.5317)"
           id="g60"><path
             id="path62"
             style="fill:#dca900;fill-opacity:1;fill-rule:nonzero;stroke:none"
             d="M 0,0 C -0.017,-0.433 -0.037,-0.868 -0.057,-1.302 H 7 C 5.759,12.992 4.67,27.287 5.591,41.676 c 0.383,5.97 2.426,10.964 6.972,14.899 3.786,3.276 5.568,7.463 5.335,12.438 -0.794,16.95 -1.637,33.896 -2.463,50.844 -0.199,4.075 -0.402,8.15 -1.304,12.291 -0.047,-0.84 -0.127,-1.68 -0.136,-2.521 -0.193,-16.682 -0.378,-33.364 -0.565,-50.046 -0.008,-0.683 0.022,-1.372 -0.054,-2.047 -0.253,-2.243 -1.539,-3.592 -3.772,-3.737 -2.28,-0.149 -3.653,1.166 -4.141,3.32 -0.212,0.937 -0.16,1.939 -0.185,2.912 -0.441,16.871 -0.874,33.742 -1.317,50.612 -0.016,0.63 -0.12,1.257 -0.516,1.881 C 3.229,127.762 2.938,123.003 2.809,118.241 2.46,105.466 2.221,92.688 1.851,79.914 1.722,75.469 0.425,73.74 -2.316,73.757 c -2.767,0.017 -3.987,1.858 -4.049,6.262 -0.221,15.511 -0.424,31.022 -0.627,46.533 -0.021,1.546 -0.003,3.093 -0.576,4.645 -0.363,-5.004 -0.826,-10.002 -1.069,-15.011 C -9.412,100.212 -10.113,84.234 -10.825,68.258 -11.019,63.908 -9.6,60.072 -6.284,57.29 -0.856,52.736 1.595,46.911 1.418,40.03 1.075,26.683 0.516,13.342 0,0" /></g><g
           transform="translate(800.4846,803.676)"
           id="g64"><path
             id="path66"
             style="fill:#dca900;fill-opacity:1;fill-rule:nonzero;stroke:none"
             d="m 0,0 c 0.026,3.008 1.313,5.468 4.159,7.229 3.465,2.144 4.192,6.008 4.541,9.725 1.997,21.207 3.015,42.427 0.135,63.646 -1.499,11.041 -4.077,21.82 -8.039,32.252 -1.307,3.44 -3.29,4.972 -5.967,4.389 -3.05,-0.664 -3.721,-2.937 -3.859,-5.726 C -10.601,79.918 -10.378,48.326 -9.137,16.724 -8.69,5.34 -8.501,-6.054 -8.278,-17.447 H 0.203 C 0.104,-11.63 -0.05,-5.815 0,0" /></g><g
           transform="translate(755.0793,786.2294)"
           id="g68"><path
             id="path70"
             style="fill:#dca900;fill-opacity:1;fill-rule:nonzero;stroke:none"
             d="m 0,0 c -1.281,15.344 -2.128,30.698 -1.346,46.118 0.241,4.733 1.679,8.273 6.316,10.565 8.796,4.349 13.505,11.894 14.775,21.483 2.189,16.521 -0.974,32.041 -9.601,46.307 -1.728,2.859 -4.139,5.452 -6.692,7.632 -4.335,3.702 -9.11,3.629 -13.664,0.224 -5.256,-3.931 -8.341,-9.476 -10.854,-15.339 -5.409,-12.617 -7.753,-25.697 -5.536,-39.401 1.514,-9.354 6.145,-16.637 14.705,-20.907 4.571,-2.28 6.132,-5.806 6.362,-10.554 C -4.787,30.704 -5.615,15.345 -6.931,0 Z" /></g><g
           transform="translate(373.6835,633.2834)"
           id="g72"><path
             id="path74"
             style="fill:#ffffff;fill-opacity:1;fill-rule:nonzero;stroke:none"
             d="m 0,0 v 18.365 h 117.538 c 1.428,0 2.652,-0.409 3.674,-1.224 1.018,-0.818 1.707,-1.813 2.065,-2.985 0.357,-1.174 0.357,-2.398 0,-3.673 C 122.919,9.206 122.13,8.161 120.905,7.346 107.844,-1.736 94.861,-10.79 81.955,-19.82 69.047,-28.85 56.064,-37.956 43.006,-47.139 h 79.277 V -65.504 H 4.132 c -1.43,0 -2.654,0.406 -3.673,1.225 -1.021,0.815 -1.71,1.809 -2.066,2.984 -0.357,1.172 -0.357,2.396 0,3.673 0.356,1.274 1.147,2.319 2.372,3.138 13.059,9.08 26.042,18.135 38.95,27.165 12.906,9.03 25.889,18.135 38.95,27.319 z" /></g><g
           transform="translate(525.3505,606.5002)"
           id="g76"><path
             id="path78"
             style="fill:#ffffff;fill-opacity:1;fill-rule:nonzero;stroke:none"
             d="m 0,0 h 82.032 v 15.305 c 0,3.263 -1.147,6.045 -3.443,8.341 -2.296,2.295 -5.076,3.443 -8.341,3.443 H 11.785 C 8.519,27.089 5.739,25.941 3.443,23.646 1.148,21.35 0,18.568 0,15.305 Z m 11.785,45.607 h 58.463 c 4.183,0 8.111,-0.792 11.784,-2.372 3.674,-1.583 6.862,-3.75 9.566,-6.505 2.702,-2.754 4.844,-5.968 6.427,-9.641 1.581,-3.673 2.373,-7.603 2.373,-11.784 V -38.721 H 82.032 v 20.202 H 0 v -20.202 h -18.365 v 54.026 c 0,4.181 0.789,8.111 2.372,11.784 1.581,3.673 3.723,6.887 6.428,9.641 2.702,2.755 5.892,4.922 9.565,6.505 3.673,1.58 7.6,2.372 11.785,2.372" /></g><g
           transform="translate(657.4266,567.7795)"
           id="g80"><path
             id="path82"
             style="fill:#ffffff;fill-opacity:1;fill-rule:nonzero;stroke:none"
             d="m 0,0 h -18.365 v 53.719 c 0,4.182 0.789,8.111 2.372,11.785 1.581,3.673 3.723,6.86 6.428,9.564 2.702,2.703 5.892,4.846 9.565,6.429 3.673,1.58 7.6,2.372 11.785,2.372 H 82.339 V 65.504 H 11.785 C 8.519,65.504 5.739,64.355 3.443,62.06 1.148,59.765 0,56.983 0,53.719 V 41.935 H 82.339 V 23.569 L 0,23.569 Z" /></g><g
           transform="translate(789.3514,609.7141)"
           id="g84"><path
             id="path86"
             style="fill:#ffffff;fill-opacity:1;fill-rule:nonzero;stroke:none"
             d="m 0,0 h 55.403 c 3.264,0 6.045,1.147 8.341,3.443 2.296,2.296 3.444,5.075 3.444,8.341 0,3.265 -1.148,6.046 -3.444,8.341 -2.296,2.296 -5.077,3.444 -8.341,3.444 h -75.911 v -65.504 h -18.365 v 83.87 l 94.276,0.152 c 4.182,0 8.112,-0.791 11.785,-2.372 3.672,-1.583 6.86,-3.749 9.565,-6.504 2.702,-2.755 4.845,-5.969 6.428,-9.642 1.581,-3.673 2.372,-7.602 2.372,-11.785 C 85.553,7.6 84.762,3.673 83.181,0 c -1.583,-3.673 -3.726,-6.863 -6.428,-9.565 -2.705,-2.706 -5.893,-4.848 -9.565,-6.428 -3.673,-1.583 -7.603,-2.372 -11.785,-2.372 H 44.689 l 39.946,-23.57 h -35.66 l -52.036,30.762 c -1.327,0.713 -2.195,1.708 -2.601,2.985 -0.409,1.275 -0.459,2.525 -0.153,3.75 0.306,1.224 0.968,2.269 1.99,3.137 C -2.807,-0.436 -1.53,0 0,0" /></g><g
           transform="translate(901.5321,606.5002)"
           id="g88"><path
             id="path90"
             style="fill:#ffffff;fill-opacity:1;fill-rule:nonzero;stroke:none"
             d="m 0,0 h 82.032 v 15.305 c 0,3.263 -1.147,6.045 -3.443,8.341 -2.296,2.295 -5.076,3.443 -8.341,3.443 H 11.785 C 8.519,27.089 5.739,25.941 3.443,23.646 1.148,21.35 0,18.568 0,15.305 Z m 11.785,45.607 h 58.463 c 4.183,0 8.111,-0.792 11.784,-2.372 3.674,-1.583 6.862,-3.75 9.566,-6.505 2.702,-2.754 4.844,-5.968 6.427,-9.641 1.581,-3.673 2.373,-7.603 2.373,-11.784 V -38.721 H 82.032 v 20.202 H 0 v -20.202 h -18.365 v 54.026 c 0,4.181 0.789,8.111 2.372,11.784 1.581,3.673 3.723,6.887 6.428,9.641 2.702,2.755 5.892,4.922 9.565,6.505 3.673,1.58 7.6,2.372 11.785,2.372" /></g><g
           transform="translate(1128.1913,651.6487)"
           id="g92"><path
             id="path94"
             style="fill:#ffffff;fill-opacity:1;fill-rule:nonzero;stroke:none"
             d="m 0,0 v -73.615 c 0,-2.552 -0.664,-4.771 -1.989,-6.657 -1.327,-1.89 -2.985,-3.317 -4.974,-4.286 -1.99,-0.968 -4.159,-1.378 -6.505,-1.224 -2.348,0.153 -4.491,1.048 -6.428,2.678 l -74.838,60.453 v -61.218 h -18.213 v 73.615 c 0,2.549 0.662,4.794 1.989,6.733 1.325,1.938 2.984,3.368 4.975,4.286 1.989,0.919 4.131,1.3 6.427,1.148 2.296,-0.153 4.412,-1.048 6.352,-2.679 l 74.992,-60.299 V 0 Z" /></g></g></g></g></svg>